# xmcd
#
# Track frame offsets: 
#        150
#        20130
#        43650
#        71700
#        91650
#        123375
#        152250
#
# Disc length: 2330 seconds
#
# Revision: 0
# Processed by: cddbd v1.5.2PL0 Copyright (c) Steve Scherf et al.
# Submitted via: ExactAudioCopy v1.3
#
DISCID=51091807
DTITLE=Grady Harrell - Don't Turn Your Back On Me (Promo CDM)
DYEAR=1990
DGENRE=Funk
TTITLE0=Don't Turn Your Back On Me (7'' Remix Version)
TTITLE1=Don't Turn Your Back On Me (East Coast)
TTITLE2=Don't Turn Your Back On Me (12'' Radio Version)
TTITLE3=Don't Turn Your Back On Me (Goh's Monster Dub)
TTITLE4=Don't Turn Your Back On Me (12'' Monster Club Mix)
TTITLE5=Don't Turn Your Back On Me (Instrumental)
TTITLE6=Don't Turn Your Back On Me (West Coast)
EXTD=
EXTT0=
EXTT1=
EXTT2=
EXTT3=
EXTT4=
EXTT5=
EXTT6=
PLAYORDER=
